<?xml version="1.0" encoding="UTF-8"?>
<svg id="Layer_1" data-name="Layer 1" xmlns="http://www.w3.org/2000/svg" xmlns:xlink="http://www.w3.org/1999/xlink" viewBox="0 0 221.1 71.86">
  <defs>
    <style>
      .cls-1, .cls-2, .cls-3, .cls-4 {
        fill: none;
      }

      .cls-5 {
        fill: #ffedcb;
      }

      .cls-2 {
        stroke: #009084;
      }

      .cls-2, .cls-3, .cls-4 {
        stroke-width: .6px;
      }

      .cls-6 {
        clip-path: url(#clippath-1);
      }

      .cls-7 {
        clip-path: url(#clippath-3);
      }

      .cls-8 {
        clip-path: url(#clippath-2);
      }

      .cls-9 {
        fill: #fff;
      }

      .cls-10 {
        fill: #009084;
      }

      .cls-11 {
        opacity: .25;
      }

      .cls-3 {
        stroke: #e4ae28;
      }

      .cls-4 {
        stroke: #fff;
      }

      .cls-12 {
        clip-path: url(#clippath);
      }
    </style>
    <clipPath id="clippath">
      <rect class="cls-1" width="221.1" height="71.86"/>
    </clipPath>
    <clipPath id="clippath-1">
      <rect class="cls-1" y="0" width="221.1" height="71.86"/>
    </clipPath>
    <clipPath id="clippath-2">
      <rect class="cls-1" x="9.17" y="-.87" width="202.85" height="46.61"/>
    </clipPath>
    <clipPath id="clippath-3">
      <rect class="cls-1" x="9.17" y="18.96" width="202.85" height="26.78"/>
    </clipPath>
  </defs>
  <g class="cls-12">
    <rect class="cls-5" y="0" width="221.1" height="71.86"/>
    <g class="cls-6">
      <line class="cls-3" y1="4.22" x2="221.1" y2="4.22"/>
      <line class="cls-3" y1="5.89" x2="221.1" y2="5.89"/>
      <line class="cls-3" y1="7.57" x2="221.1" y2="7.57"/>
      <line class="cls-3" y1="64.25" x2="221.1" y2="64.25"/>
      <line class="cls-3" y1="65.92" x2="221.1" y2="65.92"/>
      <line class="cls-3" y1="67.6" x2="221.1" y2="67.6"/>
      <g class="cls-11">
        <g class="cls-8">
          <polygon class="cls-9" points="18.47 32.39 18.47 39.47 23.42 44.43 197.71 44.43 202.72 39.47 202.72 32.39 197.82 27.42 23.43 27.42 18.47 32.39"/>
          <polygon class="cls-4" points="18.47 32.39 18.47 39.47 23.42 44.43 197.71 44.43 202.72 39.47 202.72 32.39 197.82 27.42 23.43 27.42 18.47 32.39"/>
        </g>
      </g>
      <g class="cls-11">
        <g class="cls-7">
          <polygon class="cls-10" points="18.47 32.39 18.47 39.47 23.42 44.43 197.71 44.43 202.72 39.47 202.72 32.39 197.82 27.42 23.43 27.42 18.47 32.39"/>
          <polygon class="cls-2" points="18.47 32.39 18.47 39.47 23.42 44.43 197.71 44.43 202.72 39.47 202.72 32.39 197.82 27.42 23.43 27.42 18.47 32.39"/>
        </g>
      </g>
      <line class="cls-2" x1="203.02" y1="32.73" x2="221.1" y2="32.73"/>
      <line class="cls-2" x1="203.02" y1="39.38" x2="221.1" y2="39.38"/>
      <line class="cls-2" x1="203.02" y1="34.39" x2="221.1" y2="34.39"/>
      <line class="cls-2" x1="203.02" y1="36.06" x2="221.1" y2="36.06"/>
      <line class="cls-2" x1="203.02" y1="37.72" x2="221.1" y2="37.72"/>
      <line class="cls-2" y1="32.6" x2="18.17" y2="32.6"/>
      <line class="cls-2" y1="39.26" x2="18.17" y2="39.26"/>
      <line class="cls-2" y1="34.27" x2="18.17" y2="34.27"/>
      <line class="cls-2" y1="35.93" x2="18.17" y2="35.93"/>
      <line class="cls-2" y1="37.6" x2="18.17" y2="37.6"/>
    </g>
    <polygon class="cls-2" points="18.47 32.39 18.47 39.47 23.42 44.43 197.71 44.43 202.72 39.47 202.72 32.39 197.82 27.42 23.43 27.42 18.47 32.39"/>
  </g>
</svg>